HIERARCHY
ROOT Hips
{
  OFFSET -10.0563 7.73376 -472.55
  CHANNELS 6 Xposition Yposition Zposition Zrotation Xrotation Yrotation
  JOINT Spine
  {
    OFFSET 0 0 0
    CHANNELS 3 Zrotation Xrotation Yrotation
    JOINT Spine1
    {
      OFFSET 19 0 0
      CHANNELS 3 Zrotation Xrotation Yrotation
      JOINT Neck
      {
        OFFSET 22.5 0.6 0
        CHANNELS 3 Zrotation Xrotation Yrotation
        JOINT Head
        {
          OFFSET 14 0.0308777 0
          CHANNELS 3 Zrotation Xrotation Yrotation
          End Site
          {
            OFFSET 17 0 0
          }
        }
      }
      JOINT LeftShoulder
      {
        OFFSET 19.8 3.7 4.3
        CHANNELS 3 Zrotation Xrotation Yrotation
        JOINT LeftArm
        {
          OFFSET 8 0 0
          CHANNELS 3 Zrotation Xrotation Yrotation
          JOINT LeftForeArm
          {
            OFFSET 15.2 0 0
            CHANNELS 3 Zrotation Xrotation Yrotation
            JOINT LeftHand
            {
              OFFSET 17.8 0 0
              CHANNELS 3 Zrotation Xrotation Yrotation
              End Site
              {
                OFFSET 7.2 0 0
              }
            }
          }
        }
      }
      JOINT RightShoulder
      {
        OFFSET 19.8 3.7 -4.3
        CHANNELS 3 Zrotation Xrotation Yrotation
        JOINT RightArm
        {
          OFFSET 8 0 0.151654
          CHANNELS 3 Zrotation Xrotation Yrotation
          JOINT RightForeArm
          {
            OFFSET 15.2 0 0
            CHANNELS 3 Zrotation Xrotation Yrotation
            JOINT RightHand
            {
              OFFSET 17.8 0 0
              CHANNELS 3 Zrotation Xrotation Yrotation
              End Site
              {
                OFFSET 7.2 0 0
              }
            }
          }
        }
      }
    }
  }
  JOINT LeftUpLeg
  {
    OFFSET 5.98425 -7.666 4.78879
    CHANNELS 3 Zrotation Xrotation Yrotation
    JOINT LeftLeg
    {
      OFFSET 16 0 0
      CHANNELS 3 Zrotation Xrotation Yrotation
      JOINT LeftFoot
      {
        OFFSET 18 0 0
        CHANNELS 3 Zrotation Xrotation Yrotation
        End Site
        {
          OFFSET 0 -10.8 0
        }
      }
    }
  }
  JOINT RightUpLeg
  {
    OFFSET 5.98425 -7.66598 -4.78879
    CHANNELS 3 Zrotation Xrotation Yrotation
    JOINT RightLeg
    {
      OFFSET 16 0 0
      CHANNELS 3 Zrotation Xrotation Yrotation
      JOINT RightFoot
      {
        OFFSET 18 0 0
        CHANNELS 3 Zrotation Xrotation Yrotation
        End Site
        {
          OFFSET 0 -10.8 0
        }
      }
    }
  }
  JOINT Tail
  {
    OFFSET 6.83696 -0.722574 0
    CHANNELS 3 Zrotation Xrotation Yrotation
    JOINT Tail1
    {
      OFFSET 12 0 0
      CHANNELS 3 Zrotation Xrotation Yrotation
      End Site
      {
        OFFSET 12 0 0
      }
    }
  }
}
MOTION
Frames:	21
Frame Time:	0.0166667
128.227 6.80959 206.938 -90.0357 30.9102 91.1497 -173.754 -6.18089 -1.9477 -3.19739 -5.31732 -3.60806 -2.9205 15.3083 -3.28269 -132.333 49.2058 139.61 -115.685 -38.3306 -147.605 152.843 -22.6353 -158.812 -76.6797 3.86215 1.38413 23.143 -1.16714 -8.86846 75.0574 -26.4281 34.2229 31.4827 -18.5985 -55.7717 -71.9936 -10.7288 -4.17452 -0.673389 2.10193 -11.227 -146.257 -4.80551 -17.2472 101.378 16.0198 1.36407 46.1541 -1.62328 -4.02565 -123.145 10.1055 -7.73676 90.5805 -0.90529 -4.6014 50.3414 -2.08363 -3.98567 -81.315 -63.112 -40.4726 6.08382 -20.8721 5.75092 
128.23 6.81935 206.938 -90.0141 30.8531 91.16 -173.717 -6.19663 -1.92734 -3.16904 -5.33333 -3.62588 -2.91782 15.3241 -3.24084 -132.386 49.2635 139.628 -115.683 -38.3255 -147.611 153.129 -22.4623 -158.463 -76.7708 1.85571 1.38883 24.4448 -1.30805 -10.3269 75.0494 -26.4364 34.2181 31.396 -18.6561 -55.7658 -71.9348 -10.7609 -4.12684 -0.737435 2.09733 -11.1438 -146.176 -4.79619 -17.2445 101.387 16.0985 1.36094 46.0975 -1.63349 -4.03758 -123.137 10.0909 -7.77326 90.689 -0.846238 -4.58564 50.3757 -2.09082 -3.99933 -81.207 -63.0669 -40.4661 6.10181 -20.8742 5.71078 
128.223 6.81772 206.932 -89.9829 30.7942 91.1667 -173.663 -6.22023 -1.8643 -3.15323 -5.33914 -3.7557 -3.0072 15.3338 -3.10508 -132.377 49.2634 139.711 -115.71 -38.3244 -147.673 153.652 -22.4677 -158.22 -76.8557 -0.57766 1.39907 26.1798 -1.50759 -12.1778 75.086 -26.4369 34.3555 31.2588 -18.7363 -55.8269 -71.9202 -10.645 -4.10448 -0.684187 2.06428 -11.0287 -146.162 -4.82316 -17.2052 101.432 15.9773 1.34113 46.1687 -1.62179 -4.02461 -123.113 10.0572 -7.81749 90.7242 -0.858055 -4.57464 50.3839 -2.09465 -4.00467 -81.11 -62.9706 -40.41 6.10562 -20.9449 5.76435 
128.21 6.81104 206.929 -89.9324 30.8076 91.1715 -173.686 -6.23508 -1.78233 -3.13273 -5.33959 -3.88903 -3.14696 15.4398 -3.03435 -132.436 49.189 139.811 -115.752 -38.3358 -147.745 153.624 -22.5347 -158.257 -76.7676 0.352263 1.32306 25.6804 -1.45024 -11.6452 75.1247 -26.4465 34.5278 31.1701 -18.8453 -55.8141 -72.0353 -10.6433 -4.15172 -0.67129 2.07937 -11.0968 -146.18 -4.82925 -17.1754 101.429 15.9981 1.34532 46.1767 -1.62469 -4.029 -123.129 10.0163 -7.7917 90.6631 -0.9646 -4.57811 50.3157 -2.09354 -3.99799 -81.0482 -62.9077 -40.3244 6.10292 -20.9768 5.81302 
128.208 6.81883 206.938 -89.8922 30.8317 91.1632 -173.718 -6.24385 -1.74901 -3.11044 -5.34776 -3.92305 -3.122 15.4016 -2.99161 -132.446 49.2375 139.77 -115.739 -38.3396 -147.708 153.313 -22.5715 -158.426 -76.6682 2.51404 1.28688 24.2139 -1.26562 -10.03 75.0548 -26.5197 34.4862 31.2917 -18.8216 -55.6408 -72.1667 -10.4769 -4.25296 -0.56739 2.0561 -11.0597 -146.133 -4.81644 -17.1811 101.374 16.1231 1.36402 46.1274 -1.63515 -4.04215 -123.191 9.98899 -7.7438 90.6677 -1.03957 -4.58187 50.3723 -2.08707 -3.99414 -81.0007 -62.91 -40.2607 6.09571 -20.958 5.80709 
128.215 6.8238 206.946 -89.9388 30.8184 91.1751 -173.671 -6.2302 -1.75168 -3.14854 -5.32954 -3.92861 -3.06583 15.3053 -2.94104 -132.391 49.2579 139.672 -115.719 -38.3389 -147.667 152.631 -22.3721 -158.953 -76.5929 6.24897 1.42033 21.6815 -1.04989 -6.70009 74.9814 -26.5883 34.4179 31.433 -18.8208 -55.5056 -72.327 -10.2147 -4.31839 -0.364967 2.0001 -10.9542 -146.109 -4.79534 -17.2035 101.382 16.1032 1.35673 46.1094 -1.63122 -4.03756 -123.158 10.0139 -7.78009 90.6182 -1.0345 -4.58451 50.4631 -2.08002 -3.98689 -81.0698 -62.9253 -40.3359 6.09582 -20.9611 5.80037 
128.216 6.81278 206.944 -90.0174 30.8245 91.2144 -173.626 -6.23145 -1.75822 -3.22643 -5.32876 -3.9172 -3.08731 15.3757 -2.9751 -132.415 49.1505 139.694 -115.723 -38.3359 -147.681 152.101 -22.2356 -159.443 -76.6333 8.44252 1.5647 20.2609 -0.944194 -4.62415 74.9731 -26.6034 34.4323 31.3815 -18.913 -55.5242 -72.4326 -10.2252 -4.31079 -0.322121 2.00501 -11.0099 -146.128 -4.75206 -17.2258 101.382 16.1092 1.3509 46.0972 -1.63412 -4.03704 -123.135 10.0711 -7.80816 90.6308 -0.982143 -4.58906 50.398 -2.08214 -3.98495 -81.2085 -62.9265 -40.4801 6.09354 -20.9697 5.79577 
128.21 6.80259 206.941 -90.0365 30.8807 91.2421 -173.671 -6.23319 -1.73649 -3.26349 -5.3342 -3.91358 -3.03734 15.3638 -3.01247 -132.376 49.1136 139.707 -115.723 -38.3342 -147.683 152.022 -22.1495 -159.286 -76.669 8.18536 1.5051 20.4788 -0.954582 -4.83817 74.9821 -26.5928 34.4341 31.3029 -18.9591 -55.4956 -72.4334 -10.1803 -4.32562 -0.298503 1.99361 -10.9658 -146.232 -4.74003 -17.208 101.388 16.0687 1.34703 46.1513 -1.6274 -4.029 -123.198 10.1112 -7.75045 90.6944 -1.00423 -4.60417 50.3069 -2.08467 -3.98459 -81.2874 -62.9537 -40.5338 6.0874 -20.9217 5.74687 
128.218 6.80851 206.944 -89.9955 30.8942 91.2274 -173.695 -6.22233 -1.68944 -3.25662 -5.32071 -3.96035 -2.99609 15.3096 -3.01331 -132.33 49.1361 139.683 -115.728 -38.3426 -147.678 151.946 -22.0079 -159.133 -76.5794 8.67567 1.45348 20.1068 -0.932274 -4.36979 74.9774 -26.6033 34.4478 31.2822 -19 -55.4255 -72.4148 -10.1886 -4.33524 -0.316201 1.99412 -10.9407 -146.224 -4.76762 -17.1912 101.373 16.071 1.35068 46.1451 -1.62467 -4.02702 -123.173 10.1167 -7.7074 90.6423 -0.974498 -4.60941 50.3063 -2.08745 -3.98516 -81.2522 -62.9522 -40.4389 6.08373 -20.9148 5.728 
128.234 6.81619 206.949 -90.0069 30.8436 91.1841 -173.672 -6.21788 -1.69921 -3.19433 -5.29918 -4.03824 -3.08558 15.3073 -2.9345 -132.324 49.1442 139.712 -115.724 -38.3406 -147.674 152.578 -22.4583 -159.143 -76.5357 6.71997 1.44686 21.2925 -1.0294 -6.33456 74.9432 -26.6435 34.4403 31.2604 -18.9744 -55.4298 -72.379 -10.2171 -4.3011 -0.332684 1.98741 -10.8949 -146.102 -4.77783 -17.2371 101.334 16.0934 1.36462 46.1023 -1.62563 -4.02489 -123.067 10.1277 -7.75398 90.528 -0.868949 -4.60243 50.4239 -2.08917 -3.98624 -81.227 -62.9811 -40.4246 6.08151 -20.9479 5.77895 
128.229 6.80586 206.945 -90.0817 30.8506 91.1787 -173.693 -6.22317 -1.75412 -3.18169 -5.29494 -4.04724 -3.15899 15.3527 -2.9193 -132.304 49.0282 139.732 -115.753 -38.3389 -147.742 153.033 -22.9249 -159.286 -76.6147 4.49553 1.47282 22.7304 -1.14609 -8.51683 74.9985 -26.6107 34.5471 30.9099 -19.0226 -55.6091 -72.1681 -10.4203 -4.17765 -0.464986 2.00961 -10.895 -146.117 -4.74203 -17.2997 101.32 16.0756 1.37451 46.1276 -1.62806 -4.02365 -123.045 10.1391 -7.83727 90.5022 -0.84106 -4.59631 50.4156 -2.08852 -3.98741 -81.3344 -63.061 -40.5641 6.07415 -20.9259 5.79549 
128.216 6.79776 206.939 -90.0789 30.9041 91.1881 -173.759 -6.23449 -1.7483 -3.19385 -5.31318 -4.02508 -3.07925 15.3595 -3.00031 -132.294 48.9754 139.698 -115.743 -38.3295 -147.737 152.932 -22.8595 -159.259 -76.6328 4.43267 1.46014 22.8225 -1.15313 -8.52431 75.0309 -26.558 34.5109 30.8321 -19.0328 -55.5424 -72.1034 -10.4587 -4.22287 -0.564241 2.02339 -10.8585 -146.236 -4.74385 -17.2801 101.353 16.0483 1.36747 46.1606 -1.63056 -4.02454 -123.131 10.119 -7.80148 90.5858 -0.938245 -4.60028 50.3088 -2.08182 -3.98827 -81.3941 -63.0435 -40.549 6.07949 -20.9315 5.78794 
128.221 6.80645 206.94 -90.0373 30.9205 91.1896 -173.801 -6.23602 -1.68889 -3.15834 -5.31835 -4.05968 -3.0469 15.3504 -3.04396 -132.28 48.9427 139.661 -115.71 -38.3235 -147.675 153.011 -22.8823 -159.217 -76.5998 4.30606 1.4571 22.8661 -1.14983 -8.65261 74.9818 -26.5805 34.3965 31.0047 -18.9885 -55.3687 -72.1868 -10.301 -4.32338 -0.498458 2.00366 -10.808 -146.273 -4.76949 -17.2385 101.395 16.0681 1.35843 46.1173 -1.63168 -4.03083 -123.192 10.1203 -7.72885 90.6337 -0.965286 -4.60866 50.3174 -2.07918 -3.98841 -81.346 -63.0323 -40.4791 6.08803 -20.902 5.71628 
128.237 6.81201 206.945 -90.041 30.8743 91.1732 -173.726 -6.22865 -1.68292 -3.16589 -5.30256 -4.09429 -3.11806 15.3341 -2.99539 -132.24 48.9112 139.66 -115.728 -38.3364 -147.691 153.076 -23.0063 -159.386 -76.6165 4.37786 1.50911 22.7692 -1.14891 -8.62024 74.9623 -26.6262 34.4597 30.9819 -19.0072 -55.4072 -72.2057 -10.4134 -4.32329 -0.517729 2.04379 -11.0029 -146.167 -4.78129 -17.2517 101.356 16.0769 1.36726 46.1069 -1.62989 -4.03471 -123.134 10.1157 -7.7442 90.5643 -0.926672 -4.60958 50.3887 -2.08284 -3.98732 -81.3076 -63.0738 -40.4775 6.07863 -20.8872 5.72655 
128.232 6.7988 206.944 -90.0865 30.8909 91.1659 -173.712 -6.21632 -1.73137 -3.19736 -5.28636 -4.06817 -3.1595 15.3497 -2.98538 -132.239 48.8699 139.655 -115.727 -38.3384 -147.692 153.037 -22.9863 -159.347 -76.6635 4.57802 1.47266 22.7261 -1.14963 -8.49147 74.9609 -26.6274 34.4578 31.0425 -19.0288 -55.3758 -72.3115 -10.384 -4.36214 -0.507283 2.03996 -10.9812 -146.154 -4.74615 -17.3005 101.294 16.044 1.38224 46.1837 -1.62078 -4.02443 -123.125 10.1025 -7.79793 90.5157 -0.98757 -4.61455 50.3776 -2.08245 -3.98454 -81.3972 -63.1036 -40.5451 6.06846 -20.9074 5.78848 
128.218 6.78594 206.938 -90.0959 30.9662 91.1683 -173.76 -6.20984 -1.78511 -3.25766 -5.29116 -3.9717 -3.12982 15.3698 -3.09969 -132.201 48.7574 139.603 -115.76 -38.3478 -147.741 152.851 -22.8588 -159.207 -76.7128 4.5454 1.43179 22.7908 -1.15385 -8.55498 75.03 -26.5722 34.5498 30.9676 -19.0572 -55.5277 -72.2607 -10.2801 -4.29401 -0.423604 1.99831 -10.852 -146.268 -4.73062 -17.3101 101.279 16.016 1.38702 46.2418 -1.61559 -4.01726 -123.203 10.1015 -7.78118 90.5399 -1.03198 -4.61765 50.301 -2.08068 -3.98135 -81.4702 -63.1319 -40.5753 6.07437 -20.8815 5.78896 
128.228 6.79535 206.94 -90.0881 30.948 91.1596 -173.706 -6.20861 -1.78977 -3.30681 -5.29004 -3.95663 -3.12313 15.3489 -3.14544 -132.146 48.7105 139.571 -115.789 -38.3553 -147.784 152.827 -22.9029 -159.335 -76.7127 4.3612 1.49743 22.8158 -1.16231 -8.69509 75.0869 -26.5354 34.6512 30.9757 -18.9764 -55.7402 -72.1719 -10.2457 -4.24975 -0.362776 1.99998 -10.9523 -146.288 -4.76439 -17.2921 101.346 16.052 1.37641 46.1577 -1.62524 -4.02739 -123.188 10.1024 -7.75654 90.5345 -1.01624 -4.61208 50.3256 -2.07854 -3.9792 -81.4599 -63.1244 -40.5361 6.07906 -20.8948 5.78345 
128.244 6.80968 206.946 -90.1146 30.8575 91.1384 -173.57 -6.20708 -1.82552 -3.34512 -5.27877 -3.95809 -3.1585 15.3518 -3.10171 -132.183 48.7785 139.587 -115.79 -38.3576 -147.788 152.881 -23.0356 -159.569 -76.7604 4.29885 1.58497 22.7768 -1.16926 -8.74871 75.0847 -26.5446 34.6704 31.0544 -18.9645 -55.8357 -72.1935 -10.323 -4.20092 -0.443147 2.00864 -10.955 -146.199 -4.78344 -17.3131 101.412 16.0607 1.36651 46.077 -1.63082 -4.03456 -123.093 10.1027 -7.81453 90.5291 -0.960162 -4.60146 50.4156 -2.07706 -3.97979 -81.4196 -63.1734 -40.5655 6.07156 -20.8761 5.711 
128.235 6.80265 206.944 -90.134 30.8756 91.1508 -173.569 -6.18954 -1.87906 -3.36452 -5.27218 -3.86357 -3.15289 15.3486 -3.13355 -132.18 48.7967 139.588 -115.798 -38.3647 -147.793 152.783 -22.909 -159.393 -76.7963 4.39707 1.52939 22.7614 -1.1645 -8.71348 75.1062 -26.5221 34.6834 31.1696 -19.0247 -55.8644 -72.3199 -10.5242 -4.20721 -0.516305 2.06926 -11.2007 -146.202 -4.74636 -17.3364 101.373 16.0274 1.37276 46.1389 -1.62275 -4.02553 -123.098 10.1065 -7.84643 90.5415 -0.947076 -4.60065 50.3698 -2.07735 -3.98336 -81.4521 -63.1947 -40.6231 6.06133 -20.8574 5.72532 
128.218 6.7879 206.937 -90.0941 30.9841 91.1786 -173.728 -6.16473 -1.87482 -3.30843 -5.27134 -3.77476 -3.09928 15.3386 -3.23019 -132.157 48.7725 139.544 -115.793 -38.3689 -147.772 152.718 -22.6679 -158.94 -76.7142 4.53803 1.37917 22.7515 -1.14987 -8.66791 75.1351 -26.4708 34.6386 31.1919 -18.9022 -55.8184 -72.2183 -10.4365 -4.2442 -0.463361 2.05359 -11.1586 -146.292 -4.73346 -17.2981 101.289 16.023 1.38435 46.2005 -1.61788 -4.01882 -123.209 10.0979 -7.78836 90.5661 -0.998812 -4.60899 50.2784 -2.07941 -3.98588 -81.4737 -63.1593 -40.5916 6.05616 -20.8428 5.76276 
128.219 6.79246 206.938 -90.0464 30.977 91.1696 -173.794 -6.1533 -1.85963 -3.20258 -5.2669 -3.77266 -3.09987 15.3638 -3.22487 -132.245 48.8709 139.558 -115.753 -38.3592 -147.703 152.864 -22.5837 -158.674 -76.5778 4.60772 1.30708 22.6897 -1.13539 -8.62727 75.0823 -26.4875 34.4924 31.3198 -18.7524 -55.6741 -72.1393 -10.3438 -4.26866 -0.500323 2.01545 -10.9276 -146.264 -4.78206 -17.2483 101.293 16.0388 1.38069 46.1563 -1.62347 -4.02549 -123.184 10.084 -7.76841 90.5436 -0.980161 -4.60371 50.289 -2.08301 -3.98783 -81.3972 -63.1014 -40.4989 6.07935 -20.8715 5.76101 
